<?xml version="1.0" encoding="UTF-8" standalone="no"?>
<!-- Created with Inkscape (http://www.inkscape.org/) -->

<svg
   width="293"
   height="373"
   viewBox="0 0 77.522917 98.68999"
   version="1.1"
   id="svg1"
   xml:space="preserve"
   inkscape:version="1.4.2 (ebf0e940d0, 2025-05-08)"
   sodipodi:docname="logo.svg"
   xmlns:inkscape="http://www.inkscape.org/namespaces/inkscape"
   xmlns:sodipodi="http://sodipodi.sourceforge.net/DTD/sodipodi-0.dtd"
   xmlns="http://www.w3.org/2000/svg"
   xmlns:svg="http://www.w3.org/2000/svg"><sodipodi:namedview
     id="namedview1"
     pagecolor="#ffffff"
     bordercolor="#666666"
     borderopacity="1.0"
     inkscape:showpageshadow="2"
     inkscape:pageopacity="0.0"
     inkscape:pagecheckerboard="0"
     inkscape:deskcolor="#d1d1d1"
     inkscape:document-units="mm"
     inkscape:zoom="0.13912316"
     inkscape:cx="258.76353"
     inkscape:cy="567.84218"
     inkscape:window-width="1126"
     inkscape:window-height="1018"
     inkscape:window-x="0"
     inkscape:window-y="0"
     inkscape:window-maximized="1"
     inkscape:current-layer="layer1" /><defs
     id="defs1" /><g
     inkscape:label="Layer 1"
     inkscape:groupmode="layer"
     id="layer1"><path
       style="fill:#ffffff;fill-opacity:1;fill-rule:evenodd;stroke:#e8e8e8;stroke-width:0;stroke-dasharray:none;stroke-opacity:0.929389"
       d=""
       id="path210"
       transform="scale(0.26458333)" /><g
       id="g226"
       transform="translate(-2.8263438,-126.24336)"><path
         style="fill:#4f256e;fill-opacity:1"
         d="m 27.635319,212.41205 c -1.961095,-0.44228 -2.999551,-2.60478 -2.097832,-4.36858 l 0.139241,-0.27236 -1.247741,-1.27268 c -1.126573,-1.14908 -6.876688,-7.05896 -8.214192,-8.44241 l -0.541276,-0.55987 -0.435099,0.1741 c -1.596989,0.63902 -3.281048,0.018 -4.014319,-1.48036 -1.2951731,-2.64653 1.490997,-5.38217 4.15764,-4.08224 0.352318,0.17175 0.401931,0.1811 0.520425,0.0981 0.151643,-0.10621 2.551919,-2.20507 3.944217,-3.44891 3.381114,-3.02059 6.263988,-5.61784 6.263988,-5.64337 0,-0.0164 -0.06185,-0.20615 -0.137439,-0.42159 -0.211514,-0.60283 -0.199034,-1.57273 0.02727,-2.1195 l 0.16761,-0.40496 -0.54707,-0.50842 c -0.300888,-0.27964 -1.01637,-0.9478 -1.58996,-1.4848 -0.573589,-0.53701 -1.862994,-1.74173 -2.865344,-2.67716 -1.00235,-0.93543 -2.504423,-2.33857 -3.337941,-3.1181 -0.833518,-0.77952 -1.877589,-1.75519 -2.320158,-2.16815 l -0.804671,-0.75083 -0.422114,0.19966 c -0.715417,0.3384 -1.330258,0.40669 -2.076859,0.23066 -2.8063791,-0.66166 -3.2295451,-4.55167 -0.63063,-5.79717 0.25028,-0.11994 0.491288,-0.21808 0.535572,-0.21808 0.0646,0 0.08052,-0.8779 0.08052,-4.44093 0,-3.51072 -0.01649,-4.44094 -0.07874,-4.44098 -0.174399,-1.1e-4 -0.853357,-0.37759 -1.145068,-0.63663 -1.6777431,-1.48982 -1.2794181,-4.17276 0.763554,-5.14297 0.804167,-0.38189 1.968613,-0.35918 2.638522,0.0515 l 0.194022,0.11894 5.132245,-5.17961 5.132246,-5.17961 -0.13596,-0.2398 c -0.46095,-0.81302 -0.386849,-2.15123 0.166903,-3.01417 1.423863,-2.2189 4.738632,-1.75298 5.560245,0.78154 0.03382,0.10434 0.543645,0.11023 9.534066,0.11023 h 9.49833 l 0.14395,-0.37125 c 1.02611,-2.64626 4.74868,-2.5933 5.73892,0.0816 0.27533,0.74376 0.22677,1.68908 -0.12186,2.37246 l -0.11843,0.23215 1.05357,1.09446 c 1.60038,1.66247 8.25258,8.64971 8.72836,9.16796 l 0.29884,0.32551 0.32695,-0.14936 c 2.03573,-0.92995 4.35946,0.69058 4.24824,2.96266 -0.11226,2.29324 -2.44264,3.63981 -4.47464,2.58557 l -0.30746,-0.15951 -0.82943,0.77249 c -0.45619,0.42487 -1.45305,1.33772 -2.21525,2.02854 -0.76221,0.69082 -1.72666,1.56904 -2.14324,1.95159 -0.41658,0.38256 -1.62361,1.48173 -2.68228,2.44262 l -1.92486,1.74706 0.14523,0.42616 c 0.20969,0.61534 0.2042,1.37263 -0.0147,2.02135 l -0.16314,0.48354 0.37304,0.34646 c 0.20517,0.19055 1.57488,1.48031 3.04379,2.86613 4.34692,4.10103 4.67215,4.40647 6.32239,5.93752 0.86853,0.80581 1.60749,1.45229 1.64214,1.43663 1.26688,-0.57263 2.48003,-0.55527 3.36594,0.0482 2.08723,1.4217 1.73762,4.70622 -0.58518,5.49768 l -0.29258,0.0997 v 4.24801 c 0,3.99028 0.007,4.25016 0.11023,4.28332 2.25401,0.72194 3.00631,3.34656 1.45736,5.08444 -0.92863,1.0419 -2.22121,1.27606 -3.68733,0.66798 l -0.19849,-0.0823 -1.28182,1.22841 c -2.36041,2.26205 -5.66961,5.42675 -7.16777,6.85479 -0.81626,0.77806 -1.79367,1.71677 -2.17202,2.08603 l -0.68792,0.67138 0.13773,0.33933 c 0.82544,2.03377 -0.65206,4.21301 -2.85638,4.21301 -1.34989,0 -2.40737,-0.74369 -2.87288,-2.0204 l -0.13611,-0.3733 h -9.188381 c -7.41687,0 -9.188381,0.0155 -9.188381,0.0805 0,0.17341 -0.43783,0.97424 -0.68443,1.25188 -0.716672,0.80688 -1.921841,1.20176 -2.95596,0.96855 z m 25.794603,-1.52017 c 1.48843,-0.71351 0.93946,-3.10771 -0.71329,-3.11086 -1.69846,-0.003 -2.28172,2.02633 -0.8863,3.08402 0.36483,0.27652 1.05459,0.2881 1.59959,0.0268 z m -24.353687,-0.0653 c 1.02708,-0.55901 1.171803,-1.84221 0.298213,-2.64415 -1.0332,-0.94844 -2.69856,-0.20914 -2.712724,1.20427 -0.01257,1.25418 1.308371,2.04191 2.414511,1.43988 z m 20.632377,-2.27453 c 0.16068,-0.50167 0.49895,-1.04124 0.87095,-1.38922 l 0.40675,-0.3805 -0.33952,-0.99702 c -0.18673,-0.54836 -0.77046,-2.31513 -1.29716,-3.92615 -0.5267,-1.61102 -0.96867,-2.94897 -0.98215,-2.97323 -0.0234,-0.0421 -0.71345,0.34619 -3.07607,1.73114 -3.333157,1.95386 -4.836136,2.83804 -6.362184,3.74276 -2.617268,1.55166 -6.893242,4.0512 -7.061735,4.12797 -0.08296,0.0378 -0.15084,0.0925 -0.15084,0.12161 0,0.12024 17.953409,0.063 17.991959,-0.0574 z m -16.808011,-2.3686 c 0.786619,-0.46258 2.209742,-1.29558 3.162495,-1.8511 1.664163,-0.97032 3.091268,-1.80861 5.732265,-3.36714 0.675588,-0.39868 2.312591,-1.35509 3.637781,-2.12535 1.32519,-0.77025 2.40944,-1.42135 2.40944,-1.44687 0,-0.0255 -0.18117,-0.59721 -0.40259,-1.27042 -0.22143,-0.67321 -0.72059,-2.20197 -1.10926,-3.39724 -0.38866,-1.19527 -0.72481,-2.19288 -0.74701,-2.2169 -0.0354,-0.0383 -0.66071,0.65894 -0.79239,0.88352 -0.0294,0.0502 0.0338,0.26413 0.15761,0.53264 0.40581,0.88041 0.32486,2.13404 -0.1891,2.92854 -0.603605,0.93307 -1.465362,1.39975 -2.584728,1.39975 -0.470382,0 -0.732297,-0.043 -1.361595,-0.22357 -0.108859,-0.0312 -0.238181,0.0903 -0.752487,0.7071 -0.610163,0.73177 -1.876243,2.23575 -3.936906,4.67667 -0.57273,0.67841 -1.492603,1.77206 -2.044161,2.43033 -0.551559,0.65826 -1.259336,1.49476 -1.572837,1.85887 -0.836366,0.97139 -1.122115,1.32222 -1.076955,1.32222 0.02212,0 0.683808,-0.37848 1.470428,-0.84105 z m 23.611621,-1.36367 c 1.13245,-1.09133 2.40516,-2.31023 2.82824,-2.70865 1.0787,-1.01585 4.55793,-4.34787 5.52509,-5.29132 l 0.80718,-0.7874 -0.15431,-0.37795 c -0.0849,-0.20788 -0.17426,-0.48652 -0.19864,-0.6192 -0.0244,-0.13269 -0.0762,-0.25236 -0.11513,-0.26593 -0.068,-0.0237 -5.22982,-0.72117 -5.33727,-0.72117 -0.0289,0 -0.13025,0.15888 -0.22533,0.35307 -0.42138,0.86057 -1.59885,1.59968 -2.54843,1.59968 -0.23405,0 -0.23433,3.3e-4 -0.30828,0.35656 -0.0407,0.19611 -0.22687,0.9402 -0.41369,1.65354 -0.55341,2.11315 -1.46043,5.53673 -1.88731,7.12373 l -0.39818,1.48031 0.13804,0.10875 c 0.18642,0.14685 -0.008,0.30864 2.28802,-1.90402 z m -29.315045,1.7039 c 0.164673,-0.0597 0.314182,-0.12327 0.332243,-0.14133 0.01806,-0.0181 0.07504,-1.70222 0.126629,-3.74258 0.05159,-2.04035 0.117973,-4.61682 0.147527,-5.72548 0.02956,-1.10865 0.04392,-2.02698 0.03191,-2.04072 -0.02027,-0.0232 -1.503407,0.0543 -5.221171,0.27304 -0.831494,0.0489 -2.422678,0.13904 -3.535966,0.20028 l -2.02416,0.11135 -0.167587,0.41307 c -0.09217,0.22719 -0.180489,0.44141 -0.196257,0.47606 -0.05813,0.12773 9.978169,10.38 10.108404,10.32592 0.05446,-0.0226 0.233749,-0.0899 0.398423,-0.14961 z m 4.697948,-2.4017 c 2.398689,-2.83687 4.467496,-5.28258 6.299695,-7.4474 0.698032,-0.82475 1.295888,-1.54952 1.328569,-1.61058 0.09788,-0.18289 -0.268442,-0.88985 -0.461084,-0.88985 -0.08226,0 -1.308049,0.0705 -2.723985,0.15662 -1.415937,0.0861 -3.566553,0.21659 -4.779147,0.28988 -1.212595,0.0733 -2.213805,0.14182 -2.224913,0.15228 -0.01111,0.0105 -0.04591,1.07766 -0.07733,2.37153 -0.217821,8.96795 -0.221318,9.17274 -0.157689,9.23637 0.0671,0.0671 0.562739,0.25354 0.63317,0.23818 0.03465,-0.008 1.007869,-1.13122 2.162718,-2.49703 z m 20.710477,2.1614 c 0.0638,-0.0421 0.38095,-1.20881 2.26232,-8.32188 0.33333,-1.26025 0.58269,-2.31049 0.55413,-2.33385 -0.0286,-0.0234 -0.18721,-0.14978 -0.35254,-0.28091 l -0.3006,-0.23843 -2.44298,1.42248 c -1.34364,0.78236 -2.49222,1.45847 -2.55239,1.50247 -0.1249,0.0913 -0.28068,-0.42857 1.38227,4.6133 1.32925,4.03013 1.23022,3.78173 1.44979,3.63682 z m -2.20055,-10.33847 c 3.59349,-2.07909 3.58014,-2.07076 3.56448,-2.22439 -0.16735,-1.64105 0.15478,-2.51525 1.22657,-3.3286 0.24515,-0.18604 0.33722,0.32422 -0.7228,-4.0058 l -0.80397,-3.2841 -0.39909,-0.041 c -0.21951,-0.0226 -0.54549,-0.0967 -0.72441,-0.16467 -0.17892,-0.068 -0.34212,-0.12366 -0.36266,-0.12368 -0.0206,-2e-5 -0.69913,0.77241 -1.50797,1.7165 -0.80884,0.94409 -1.62985,1.90078 -1.82447,2.12597 -1.082,1.252 -2.142,2.52242 -2.142,2.56719 0,0.0282 0.55268,1.70862 1.22817,3.73419 0.6755,2.02556 1.22825,3.68993 1.22834,3.69859 4.5e-4,0.0418 0.13515,-0.0311 1.23981,-0.67017 z m -35.629586,0.3314 c 1.171022,-0.63735 1.136888,-2.30707 -0.05964,-2.91749 -1.240118,-0.63266 -2.71038,0.58516 -2.310517,1.9138 0.316039,1.05012 1.423329,1.51902 2.370159,1.00369 z m 54.375766,-0.38801 c 0.61422,-0.34701 0.95467,-1.0859 0.80614,-1.74959 -0.29238,-1.30648 -1.83738,-1.77565 -2.77142,-0.84161 -1.33874,1.33874 0.31733,3.52224 1.96528,2.5912 z m -26.580618,-1.08793 c 0.398814,-0.10069 0.834351,-0.44881 1.020087,-0.81534 0.832184,-1.64223 -1.184793,-3.21112 -2.546578,-1.98083 -1.260086,1.13842 -0.127154,3.21368 1.526491,2.79617 z m 15.207858,-0.44695 c 1.43078,-0.87977 0.83565,-3.07567 -0.83356,-3.07567 -1.42154,0 -2.16228,1.66559 -1.21869,2.74028 0.49212,0.56049 1.43544,0.71465 2.05225,0.33539 z m -36.707455,-0.5909 c 5.850303,-0.34664 6.758702,-0.40484 6.788752,-0.43489 0.0309,-0.0309 0.09015,-2.24574 0.172847,-6.46055 l 0.04264,-2.17322 -0.491374,-0.22846 -0.491374,-0.22845 -1.134062,1.01585 c -0.623735,0.55872 -1.447075,1.30038 -1.829646,1.64813 -0.38257,0.34775 -1.361722,1.22567 -2.175893,1.95094 -0.81417,0.72526 -2.018891,1.80195 -2.677156,2.39265 -0.658266,0.5907 -1.487705,1.32648 -1.843199,1.63508 -0.682235,0.59223 -0.664168,0.55771 -0.50893,0.9723 0.06481,0.17309 -0.480562,0.18485 4.147398,-0.0894 z m 14.582631,-0.87201 c 0.831493,-0.0531 1.837789,-0.11293 2.236213,-0.13305 1.304095,-0.0659 1.207501,-0.0272 1.377587,-0.55128 l 0.146961,-0.45282 -0.182404,-0.15968 c -0.100322,-0.0878 -0.818934,-0.71471 -1.596916,-1.39308 -0.777983,-0.67837 -2.17987,-1.91144 -3.115306,-2.74015 -0.935435,-0.82871 -2.156856,-1.90822 -2.714269,-2.3989 l -1.013477,-0.89216 -0.422628,0.21271 c -0.232446,0.11699 -0.516842,0.23038 -0.631992,0.25199 l -0.209364,0.0393 -0.04776,2.18347 c -0.07286,3.33115 -0.127208,6.38185 -0.113925,6.39498 0.01365,0.0135 4.037016,-0.21771 6.287277,-0.3613 z m 29.973384,0.0491 0.17296,-0.35265 -0.30157,-0.35458 c -1.03363,-1.21532 -3.51845,-3.64568 -6.32276,-6.18418 -3.94219,-3.56852 -3.78612,-3.43459 -3.93535,-3.37732 -0.16164,0.062 -0.0794,0.44972 1.03663,4.88912 l 0.56219,2.23622 0.33635,0.0377 c 1.36927,0.15354 2.39275,1.02609 2.76352,2.35598 l 0.10537,0.37795 1.78884,0.23574 c 0.98387,0.12965 2.17152,0.28964 2.63924,0.35553 0.46771,0.0659 0.87992,0.1228 0.91601,0.12647 0.0361,0.004 0.14345,-0.15203 0.23857,-0.34599 z m 1.64334,-1.40888 0.28868,-0.12374 v -4.21426 -4.21426 l -0.3622,-0.13215 c -0.77546,-0.28293 -1.38703,-0.82328 -1.75057,-1.54673 -0.11986,-0.23851 -0.21793,-0.47237 -0.21793,-0.51968 0,-0.14971 -8.55826,-0.12563 -8.60592,0.0242 -0.0193,0.0606 -0.0864,0.24183 -0.14919,0.40267 l -0.11413,0.29243 0.57636,0.52963 c 0.31701,0.2913 1.01574,0.9246 1.55275,1.40733 3.89213,3.49874 7.40316,6.87733 8.06586,7.76161 0.38962,0.51988 0.33712,0.49547 0.71629,0.33294 z m -26.588587,-1.03665 c 0.690383,-0.4001 1.77584,-0.46593 2.536232,-0.15383 l 0.383289,0.15732 0.449037,-0.53965 c 0.246971,-0.29681 0.567085,-0.67509 0.711369,-0.84063 l 0.26232,-0.30097 -1.964369,-5.90373 c -1.080404,-3.24705 -2.006061,-6.02011 -2.057016,-6.16235 l -0.09265,-0.25862 -0.454956,-0.0389 c -0.701366,-0.0599 -1.216217,-0.25334 -1.815595,-0.68207 -0.08373,-0.0599 -0.498938,0.21494 -2.451139,1.6224 -4.187771,3.01923 -4.377313,3.16017 -4.366635,3.24681 0.0058,0.047 0.04436,0.25557 0.08571,0.46344 0.08996,0.45227 0.04717,1.09355 -0.105223,1.57699 -0.07579,0.24045 -0.08986,0.36621 -0.04424,0.39563 0.03678,0.0237 0.715768,0.61513 1.50886,1.31424 2.54385,2.24241 7.110592,6.24525 7.131536,6.25092 0.01115,0.003 0.138712,-0.0631 0.283464,-0.14703 z m 6.605247,-4.33565 c 0.60214,-0.70157 1.4324,-1.67243 1.84501,-2.15747 0.41261,-0.48504 0.96451,-1.12285 1.22643,-1.41736 0.81279,-0.9139 0.74561,-0.75313 0.51972,-1.24373 -0.25673,-0.5576 -0.34536,-0.99519 -0.31666,-1.56348 l 0.0234,-0.46398 -2.55229,-1.30269 c -1.40376,-0.71648 -3.11921,-1.59399 -3.812122,-1.95003 l -1.259839,-0.64734 -0.32979,0.2985 -0.32979,0.2985 1.850255,5.53911 c 1.892056,5.66425 1.967796,5.88556 2.014076,5.88556 0.0147,0 0.51944,-0.57401 1.12157,-1.27559 z m -17.733014,-3.00385 c 1.259631,-0.57192 1.291195,-2.3928 0.05199,-2.99909 -1.314015,-0.64289 -2.695773,0.5616 -2.295915,2.00137 0.242743,0.87404 1.391433,1.38478 2.243927,0.99772 z m 24.762984,-1.66619 c 1.923,-0.99442 0.63699,-3.88417 -1.3379,-3.00635 -1.40751,0.62562 -1.26813,2.61423 0.21739,3.10164 0.23791,0.0781 0.89301,0.0224 1.12051,-0.0953 z m 14.53579,-0.0616 c 1.59443,-0.74247 1.11235,-3.14199 -0.63232,-3.14731 -0.86379,-0.003 -1.56137,0.63114 -1.65105,1.50002 -0.12639,1.22461 1.17495,2.16344 2.28337,1.64729 z m -36.829924,-2.86305 c 0.576461,-0.40939 1.770943,-1.2649 2.654405,-1.90113 0.883462,-0.63623 1.926787,-1.38552 2.3185,-1.66509 l 0.712206,-0.50831 -0.05079,-0.22047 c -0.02793,-0.12126 -0.05079,-0.52191 -0.05079,-0.89032 v -0.66986 l -3.912549,-1.95487 -3.91255,-1.95487 -0.344278,0.32552 c -0.189354,0.17903 -0.505078,0.40685 -0.70161,0.50626 -0.436824,0.22094 -0.424984,0.0135 -0.141458,2.47815 0.118729,1.03209 0.318764,2.85447 0.444522,4.04975 0.26723,2.53989 0.2537,2.45668 0.399437,2.45668 0.228002,0 0.89047,0.26599 1.186302,0.47632 0.16755,0.11913 0.314966,0.21659 0.32759,0.21659 0.01262,0 0.494604,-0.33496 1.071063,-0.74435 z m 29.548704,0.61837 h 3.63069 l 0.12328,-0.36221 c 0.0678,-0.19921 0.12328,-0.37637 0.12328,-0.3937 0,-0.0367 -1.37208,-1.33509 -4.75821,-4.50279 -1.33258,-1.24662 -2.69216,-2.52226 -3.02129,-2.83477 -0.32913,-0.3125 -1.25908,-1.18746 -2.06655,-1.94434 l -1.46814,-1.37615 -0.34181,0.14794 c -0.3046,0.13184 -0.34187,0.16852 -0.34237,0.33692 -6.7e-4,0.22932 0.18896,2.56895 0.4059,5.00786 0.0878,0.9874 0.19225,2.19212 0.23204,2.67715 0.0795,0.96907 0.0862,0.98391 0.49433,1.09802 0.87668,0.2451 1.76628,1.16073 1.98869,2.04688 l 0.0452,0.18021 0.66212,-0.0405 c 0.36417,-0.0223 2.29594,-0.0405 4.29281,-0.0405 z m -33.776299,-0.7874 c -0.04265,-0.489 -0.875528,-8.17302 -0.901263,-8.31493 -0.01706,-0.0941 -0.12311,-0.15515 -0.418991,-0.24119 -0.559174,-0.16262 -0.978129,-0.42005 -1.395198,-0.85731 -0.318911,-0.33434 -0.445633,-0.54787 -0.721928,-1.21646 l -0.07159,-0.17322 -4.14307,9.2e-4 -4.143069,9.2e-4 -0.147692,0.38367 c -0.08123,0.21102 -0.12375,0.40607 -0.09449,0.43346 0.02926,0.0274 0.310596,0.2866 0.625186,0.57603 0.796206,0.73254 4.290752,3.99853 4.939811,4.61673 0.294487,0.28049 1.327654,1.24652 2.295927,2.14674 0.968272,0.90022 2.157679,2.00744 2.643126,2.46049 l 0.882631,0.82371 0.339037,-0.1623 0.339038,-0.1623 z m 23.842259,-0.72951 c 0.21671,-0.17603 0.55058,-0.39996 0.74194,-0.49763 l 0.34792,-0.17757 -0.20133,-2.19527 c -0.11073,-1.2074 -0.27588,-3.15905 -0.36701,-4.337 -0.0911,-1.17795 -0.17266,-2.1672 -0.18121,-2.19833 -0.009,-0.0311 -0.17003,-0.096 -0.35886,-0.14413 -0.41543,-0.10591 -0.82575,-0.29822 -1.06398,-0.49868 l -0.17653,-0.14853 -3.40938,2.43971 c -3.407145,2.43812 -3.409352,2.43984 -3.364588,2.62869 0.02464,0.10394 0.04699,0.49664 0.04968,0.87268 l 0.0049,0.68369 1.383098,0.71139 c 0.76071,0.39126 2.46026,1.26646 3.7768,1.94487 1.31653,0.67842 2.40063,1.23409 2.40912,1.23483 0.008,7.4e-4 0.19274,-0.14268 0.40945,-0.31872 z m -10.314611,-2.81462 c 1.548151,-0.79815 1.011404,-3.10598 -0.721027,-3.10017 -1.768053,0.006 -2.268314,2.36126 -0.664795,3.13 0.39017,0.18704 0.990212,0.17413 1.385822,-0.0298 z m -2.718816,-3.7656 c 1.106452,-0.97361 2.729294,-1.02397 3.912588,-0.12143 0.135565,0.1034 0.24893,0.14732 0.299564,0.11605 0.0448,-0.0277 1.286183,-0.91611 2.758615,-1.97433 1.47244,-1.05821 2.96362,-2.12909 3.31375,-2.37972 l 0.63658,-0.45569 -0.0854,-0.32925 c -0.11391,-0.43914 -0.1081,-1.13976 0.013,-1.56366 0.0541,-0.18944 0.10371,-0.38908 0.11023,-0.44365 0.007,-0.0598 -0.55183,-0.57194 -1.40545,-1.28783 -3.84012,-3.22048 -6.674282,-5.61065 -7.478361,-6.30682 l -0.454765,-0.39373 -0.356489,0.21467 c -0.781044,0.47032 -1.719524,0.57844 -2.534111,0.29196 l -0.398566,-0.14017 -0.136866,0.17486 c -0.125157,0.15989 -0.817783,1.01394 -3.715447,4.58136 -0.560906,0.69055 -1.51864,1.86693 -2.128299,2.61417 l -1.10847,1.35861 0.17414,0.31496 c 0.263284,0.47619 0.373514,0.93406 0.373514,1.5515 v 0.55225 l 3.921248,1.95037 c 2.156686,1.07269 3.930846,1.95289 3.942579,1.95598 0.01173,0.003 0.167638,-0.12311 0.346456,-0.28046 z m -25.147056,-2.64479 c 1.146724,-0.39073 1.476415,-1.87415 0.609257,-2.74131 -1.026306,-1.02631 -2.779286,-0.29074 -2.773178,1.16366 0.0049,1.1625 1.080603,1.94677 2.163921,1.57765 z m 14.579136,-0.0804 c 1.061536,-0.54763 1.245274,-1.94036 0.358916,-2.72056 -1.393692,-1.22678 -3.393485,0.41247 -2.486296,2.03804 0.415323,0.7442 1.397191,1.05921 2.12738,0.68252 z m 25.003227,-1.70475 c 1.2904,-0.58824 1.31853,-2.36119 0.0472,-2.97661 -1.01026,-0.48906 -2.31806,0.29159 -2.34164,1.39777 -0.0252,1.18416 1.2441,2.05763 2.29441,1.57884 z m -28.56004,-0.97964 0.176542,-0.43584 -0.193602,-0.22557 c -0.106481,-0.12407 -0.633093,-0.67044 -1.170248,-1.21417 l -0.976646,-0.98859 -1.393851,0.76505 c -2.603251,1.42887 -3.660599,2.00289 -4.118252,2.23574 -0.251181,0.1278 -0.456692,0.25471 -0.456692,0.28201 0,0.0273 1.790147,0.0423 3.978103,0.0334 l 3.978104,-0.0162 z m -8.180544,-1.27287 c 0.925963,-0.49523 3.645824,-1.96893 4.425734,-2.39799 0.242519,-0.13342 0.440943,-0.27571 0.440943,-0.31621 0,-0.0405 -0.256579,-0.33749 -0.570175,-0.65999 -0.313596,-0.3225 -1.80808,-1.86618 -3.321074,-3.43039 l -2.750898,-2.84402 -0.409678,0.13537 -0.409678,0.13537 -0.0015,4.41926 -0.0015,4.41926 0.292578,0.0997 c 0.369585,0.12593 0.809839,0.40709 1.089854,0.69603 0.273468,0.28217 0.166119,0.30482 1.215434,-0.25638 z m 9.671631,-0.35345 c 0.206177,-0.0746 0.214018,-0.0888 0.181476,-0.33071 -0.01871,-0.13903 -0.0973,-0.80554 -0.174657,-1.48113 -0.07736,-0.67559 -0.14741,-1.23764 -0.155679,-1.24901 -0.03131,-0.043 -2.046685,1.07714 -2.028994,1.12777 0.01919,0.0549 1.887292,1.98807 1.935343,2.00274 0.01486,0.004 0.123993,-0.0268 0.242511,-0.0697 z m 3.87373,-1.32365 c 0.601203,-0.73622 1.956617,-2.40157 3.012031,-3.70078 2.819475,-3.47075 2.734128,-3.356 2.300928,-3.09362 -0.218484,0.13233 -2.496924,1.36786 -4.57435,2.48053 -2.45028,1.31237 -3.228812,1.73798 -3.288651,1.79781 -0.05009,0.0501 0.256444,3.00597 0.357279,3.44519 0.02559,0.11145 0.664168,0.36172 1.023397,0.40109 0.04195,0.005 0.568163,-0.594 1.169366,-1.33022 z m 21.209203,-0.31726 c 0.25887,-0.12866 0.52816,-0.23435 0.59842,-0.23488 0.26849,-0.002 0.26873,-0.004 0.5009,-3.43262 0.27887,-4.11879 0.28006,-3.70266 -0.0109,-3.80643 -1.23821,-0.44155 -2.11597,-1.9157 -1.9256,-3.23395 0.0361,-0.25033 0.0484,-0.4742 0.0272,-0.4975 -0.0212,-0.0233 -0.78974,-0.47426 -1.70785,-1.00214 -0.91811,-0.52788 -2.20787,-1.26966 -2.86613,-1.6484 -0.65826,-0.37874 -1.245087,-0.71466 -1.30405,-0.74648 -0.08732,-0.0471 -0.211532,0.062 -0.669596,0.5884 -0.309314,0.35545 -0.96973,1.11131 -1.467592,1.6797 -1.08422,1.23782 -1.377642,1.58411 -1.377642,1.62583 0,0.0173 0.08262,0.20551 0.18361,0.41833 0.343122,0.72313 0.408685,1.67442 0.163327,2.36984 -0.07911,0.22422 -0.0825,0.29192 -0.01769,0.35305 0.538297,0.50766 9.325503,7.84356 9.367663,7.82049 0.0194,-0.0106 0.24714,-0.12459 0.506,-0.25324 z m 6.16259,-2.51738 c 1.65242,-1.49842 3.82647,-3.47284 4.83123,-4.38761 1.00475,-0.91477 1.85205,-1.68552 1.8829,-1.71277 0.0493,-0.0436 -0.16786,-0.70549 -0.27063,-0.825 -0.0206,-0.0239 -1.70555,-0.049 -3.74438,-0.0558 l -3.70695,-0.0122 -0.1422,0.34987 c -0.33786,0.83129 -1.09918,1.5239 -1.95567,1.77916 l -0.25197,0.0751 -0.19552,2.92218 c -0.10754,1.6072 -0.21319,3.20565 -0.23478,3.5521 l -0.0393,0.62992 0.39226,0.19436 c 0.21574,0.10689 0.40088,0.19902 0.41141,0.20472 0.0105,0.006 1.37114,-1.21561 3.02356,-2.71403 z m -32.774897,0.11778 c 0.554329,-0.29582 1.048822,-0.56236 1.098874,-0.59232 0.07811,-0.0468 0.04865,-0.43302 -0.208021,-2.72696 -0.349013,-3.11926 -0.283247,-2.80233 -0.591739,-2.85166 -0.734676,-0.11748 -1.691553,-0.88109 -2.087856,-1.66616 -0.197155,-0.39057 -0.198734,-0.39188 -0.43291,-0.35892 -0.261988,0.0369 -4.97282,0.52086 -5.631172,0.57854 -0.52229,0.0458 -0.551826,0.0646 -0.626991,0.39909 -0.03362,0.14962 -0.129648,0.41522 -0.213405,0.59023 l -0.152284,0.3182 0.519081,0.53704 c 0.285495,0.29538 1.873676,1.93154 3.529291,3.63591 l 3.01021,3.09887 0.389526,-0.212 c 0.214239,-0.11661 0.843067,-0.45404 1.397396,-0.74986 z m 4.140538,-2.20528 c 2.02437,-1.07786 4.418227,-2.36584 5.642023,-3.03562 l 1.026683,-0.5619 -0.03689,-0.35517 c -0.07222,-0.69528 0.169223,-1.58665 0.573245,-2.11635 l 0.159513,-0.20914 -0.259107,-0.41026 c -0.142509,-0.22565 -1.425022,-2.17368 -2.850029,-4.32895 -1.425007,-2.15527 -2.969545,-4.4954 -3.432306,-5.20029 -0.677778,-1.03241 -0.862462,-1.27346 -0.949776,-1.23967 -0.05961,0.0231 -0.24376,0.0733 -0.409211,0.11171 -0.223474,0.0518 -0.307442,0.10332 -0.326573,0.2003 -0.07194,0.36468 -0.905667,6.15629 -1.007196,6.99666 l -0.03805,0.31496 0.321764,0.18898 c 2.03918,1.19763 1.95731,4.31778 -0.142114,5.41607 -0.358507,0.18755 -0.35885,0.18801 -0.328303,0.44095 0.01682,0.13925 0.128773,1.11776 0.248786,2.17445 0.233589,2.05669 0.278223,2.39369 0.317024,2.39369 0.01363,0 0.684362,-0.35119 1.490521,-0.78042 z m 10.433311,-2.85032 c 1.292521,-0.63103 1.109468,-2.61524 -0.278492,-3.01873 -1.749194,-0.5085 -2.888127,1.74026 -1.463052,2.88872 0.476732,0.3842 1.122195,0.43238 1.741544,0.13001 z m 28.332438,-1.18802 c 1.02934,-0.42873 1.30957,-1.87229 0.51858,-2.6714 -0.87902,-0.88803 -2.38144,-0.53016 -2.7339,0.65122 -0.4039,1.35384 0.91893,2.56015 2.21532,2.02018 z m -13.41836,-0.20988 c 1.02756,-0.53017 1.25803,-1.8335 0.47355,-2.67789 -0.7495,-0.80674 -2.20728,-0.52355 -2.67126,0.51891 -0.60112,1.35063 0.90217,2.82743 2.19771,2.15898 z m -40.40115,0.0254 c 0.804675,-0.28716 1.26582,-1.19609 1.025772,-2.02183 -0.417573,-1.4364 -2.468001,-1.59757 -3.068007,-0.24116 -0.595595,1.34644 0.67263,2.75176 2.042235,2.26299 z M 25.9177,152.37428 c 0.703389,-0.20889 1.190511,-0.9585 1.121,-1.72508 -0.132745,-1.46394 -1.884263,-2.03334 -2.856643,-0.92866 -1.095174,1.24419 0.13719,3.12842 1.735643,2.65374 z m 37.892372,-1.14487 c 0.0609,-0.16457 0.15163,-0.36487 0.20172,-0.44511 0.11225,-0.17983 0.61828,0.38748 -4.42122,-4.95666 -1.33911,-1.42007 -4.74336,-5.00355 -5.1904,-5.46367 l -0.29006,-0.29855 -0.37787,0.15466 -0.37787,0.15467 0.015,0.7738 c 0.008,0.42559 0.0583,1.52498 0.11119,2.44309 0.23856,4.13846 0.28354,4.95909 0.28341,5.17111 -1.2e-4,0.21176 0.017,0.23134 0.26759,0.30569 1.01961,0.30254 1.73525,0.97714 2.09714,1.97687 l 0.14075,0.38882 2.2275,0.0155 c 1.22512,0.008 2.34088,0.0248 2.47947,0.0362 0.13858,0.0114 0.80795,0.0257 1.4875,0.0318 l 1.23553,0.011 z m -44.980647,-0.55227 c 1.527363,-0.1565 2.943311,-0.30532 3.146551,-0.3307 l 0.369527,-0.0462 0.110914,-0.3592 c 0.334837,-1.08438 1.208356,-1.8937 2.325114,-2.15422 0.218226,-0.0509 0.402929,-0.10149 0.410452,-0.1124 0.01637,-0.0238 0.304439,-1.93978 0.732215,-4.87022 0.171953,-1.17795 0.328836,-2.21912 0.348628,-2.31372 0.03157,-0.15088 0.0071,-0.18567 -0.19899,-0.28346 l -0.234978,-0.11147 -4.939256,4.97636 c -5.729887,5.77293 -5.280788,5.28084 -5.135339,5.62692 0.06046,0.14385 0.15002,0.26183 0.199029,0.26218 0.04901,3.5e-4 1.33877,-0.12741 2.866133,-0.28391 z m 22.123181,-1.3666 c 0.688711,-0.8042 1.419613,-1.64167 1.624226,-1.86104 0.218244,-0.23398 0.348436,-0.42161 0.31496,-0.45391 -0.03139,-0.0303 -1.488556,-0.86984 -3.238157,-1.8657 -1.7496,-0.99585 -4.654924,-2.65425 -6.456274,-3.68533 -1.801351,-1.03109 -3.283691,-1.86619 -3.29409,-1.85579 -0.02451,0.0245 1.290228,2.05609 2.977721,4.6013 1.942686,2.9301 3.666084,5.54627 3.956166,6.00558 0.240206,0.38034 0.262296,0.39804 0.447961,0.35885 0.916483,-0.19343 1.432742,-0.17793 1.99562,0.0599 0.18777,0.0793 0.35901,0.14742 0.380533,0.15129 0.02152,0.004 0.602623,-0.65094 1.291334,-1.45514 z m 10.301486,0.42132 c 0.13513,-0.12208 0.42911,-0.31241 0.6533,-0.42296 0.25596,-0.12622 0.40762,-0.23974 0.40762,-0.3051 0,-0.19284 -0.24733,-4.8608 -0.3554,-6.7077 l -0.10714,-1.83098 -0.3829,-0.12655 c -0.2106,-0.0696 -0.42543,-0.14382 -0.47739,-0.16494 -0.0668,-0.0271 -0.46772,0.39016 -1.36643,1.42209 -0.69956,0.80327 -1.96772,2.25352 -2.81812,3.22278 -1.19506,1.36211 -1.52847,1.77845 -1.46821,1.83344 0.0429,0.0391 1.12679,0.66918 2.40867,1.40011 1.28189,0.73093 2.52913,1.45519 2.77165,1.60947 0.24252,0.15427 0.45168,0.28316 0.4648,0.2864 0.0131,0.003 0.13442,-0.094 0.26955,-0.21606 z m -6.2345,-5.11278 c 0.59989,-0.68214 1.52643,-1.73805 2.05898,-2.34645 0.53255,-0.6084 1.31207,-1.48818 1.73228,-1.95508 1.17782,-1.3087 1.0873,-1.17657 0.96557,-1.40938 -0.0571,-0.10912 -0.15722,-0.32596 -0.22257,-0.48187 l -0.11882,-0.28346 -1.15843,0.006 c -0.63713,0.003 -4.885971,0.0107 -9.441862,0.0169 l -8.283438,0.0114 0.310999,0.19523 c 0.61651,0.38702 12.99448,7.48593 13.054933,7.48715 0.0064,1.3e-4 0.502465,-0.55788 1.102358,-1.24003 z m -17.068298,-5.62872 c 0.868536,-0.24122 1.385236,-1.3928 1.002071,-2.23334 -0.730274,-1.60199 -3.098159,-1.11863 -3.114665,0.6358 -0.01049,1.11566 1.025865,1.89935 2.112594,1.59754 z m 25.202798,-0.0882 c 1.53641,-0.74364 0.99319,-3.12153 -0.7131,-3.12153 -1.51064,0 -2.18939,1.87218 -1.0442,2.88021 0.46435,0.40874 1.20209,0.51005 1.7573,0.24132 z"
         id="path2" /><path
         style="fill:#ffffff;fill-opacity:1;fill-rule:evenodd;stroke:#e8e8e8;stroke-width:0;stroke-dasharray:none;stroke-opacity:0.929389"
         d="m 64.234213,732.0027 c -0.205084,-0.33183 4.671786,-5.08901 10.837489,-10.57152 6.165704,-5.48251 14.803299,-13.20762 19.194657,-17.16692 6.554931,-5.91 8.312641,-7.11285 9.818471,-6.71907 l 1.83419,0.47965 -0.51093,15.83287 c -0.28101,8.70808 -0.67106,15.99301 -0.86678,16.18873 -0.36945,0.36946 -30.784051,2.46789 -36.616724,2.52635 -1.824621,0.0183 -3.485289,-0.23825 -3.690373,-0.57009 z"
         id="path170"
         transform="scale(0.26458333)" /><path
         style="fill:#ffffff;fill-opacity:1;fill-rule:evenodd;stroke:#e8e8e8;stroke-width:0;stroke-dasharray:none;stroke-opacity:0.929389"
         d="m 111.65403,714.59043 c 0.43748,-12.85238 0.7538,-15.80214 1.78179,-16.61596 0.68744,-0.54421 1.69356,-0.98947 2.23583,-0.98947 1.01488,0 32.75894,27.54951 32.73722,28.41145 -0.0509,2.02098 -2.10162,2.47128 -14.66644,3.22048 -7.38236,0.44019 -15.49199,0.98027 -18.02139,1.20017 l -4.59891,0.39982 z"
         id="path171"
         transform="scale(0.26458333)" /><path
         style="fill:#ffffff;fill-opacity:1;fill-rule:evenodd;stroke:#e8e8e8;stroke-width:0;stroke-dasharray:none;stroke-opacity:0.929389"
         d="m 110.69391,758.59612 c 0.28768,-11.82755 0.66432,-21.6459 0.83697,-21.81855 0.17265,-0.17265 8.2764,-0.82482 18.00833,-1.44925 16.46356,-1.05636 17.76312,-1.04252 18.68207,0.19895 0.81284,1.0981 0.73169,1.6232 -0.45844,2.96652 -0.79535,0.89774 -9.02282,10.62656 -18.28327,21.61961 -9.26045,10.99304 -17.39328,19.98736 -18.07295,19.98736 -1.10248,0 -1.17935,-2.31945 -0.71271,-21.50464 z"
         id="path172"
         transform="scale(0.26458333)" /><path
         style="fill:#ffffff;fill-opacity:1;fill-rule:evenodd;stroke:#e8e8e8;stroke-width:0;stroke-dasharray:none;stroke-opacity:0.929389"
         d="M 82.583331,761.85142 C 72.427328,751.38434 64.029264,742.39225 63.920968,741.86899 c -0.512615,-2.47681 1.288558,-2.80693 21.095315,-3.86641 l 20.099337,-1.07513 -0.51152,11.81778 c -0.28133,6.49977 -0.51151,16.02313 -0.51151,21.16301 0,14.554 0.67486,14.80679 -21.509259,-8.05682 z"
         id="path173"
         transform="scale(0.26458333)" /><path
         style="fill:#ffffff;fill-opacity:1;fill-rule:evenodd;stroke:#e8e8e8;stroke-width:0;stroke-dasharray:none;stroke-opacity:0.929389"
         d="m 48.73954,740.01928 c -1.837247,-2.33568 -2.068843,-4.81096 -0.625962,-6.69026 3.654123,-4.75936 10.331312,-2.56164 10.331312,3.40044 0,5.03837 -6.576442,7.26759 -9.70535,3.28982 z"
         id="path174"
         transform="scale(0.26458333)" /><path
         style="fill:#ffffff;fill-opacity:1;fill-rule:evenodd;stroke:#e8e8e8;stroke-width:0;stroke-dasharray:none;stroke-opacity:0.929389"
         d="m 105.24398,690.29256 c -2.34525,-2.34525 -2.48959,-5.08757 -0.38659,-7.34487 2.25957,-2.42536 4.54447,-2.91979 6.76611,-1.46412 3.91487,2.56513 4.35227,7.17191 0.90988,9.58306 -2.44373,1.71165 -5.08406,1.43127 -7.2894,-0.77407 z"
         id="path175"
         transform="scale(0.26458333)" /><path
         style="fill:#ffffff;fill-opacity:1;fill-rule:evenodd;stroke:#e8e8e8;stroke-width:0;stroke-dasharray:none;stroke-opacity:0.929389"
         d="m 104.80903,796.43894 c -1.02077,-0.50892 -2.36434,-1.83105 -2.98569,-2.93807 -0.97104,-1.73002 -0.97414,-2.33743 -0.0221,-4.32382 2.26372,-4.72309 8.79541,-4.33666 10.53983,0.62355 1.53377,4.36126 -3.39187,8.70244 -7.53205,6.63834 z"
         id="path176"
         transform="scale(0.26458333)" /><path
         style="fill:#ffffff;fill-opacity:1;fill-rule:evenodd;stroke:#e8e8e8;stroke-width:0;stroke-dasharray:none;stroke-opacity:0.929389"
         d="m 155.50097,734.31255 c -1.2192,-0.98725 -1.80278,-2.30839 -1.80278,-4.08125 0,-5.01978 6.16243,-7.39452 9.62482,-3.70898 2.23289,2.3768 2.18881,5.3684 -0.11093,7.52889 -2.24126,2.10555 -5.30536,2.2094 -7.71111,0.26134 z"
         id="path177"
         transform="scale(0.26458333)" /><path
         style="fill:#ffffff;fill-opacity:1;fill-rule:evenodd;stroke:#e8e8e8;stroke-width:0;stroke-dasharray:none;stroke-opacity:0.929389"
         d="m 110.67908,758.61112 c 0.27934,-11.8193 0.6559,-21.63765 0.8368,-21.81855 0.1809,-0.1809 8.2914,-0.83982 18.02333,-1.46425 16.27991,-1.04458 17.77115,-1.03172 18.65424,0.16088 1.15145,1.555 3.08346,-0.99944 -18.65123,24.66002 -9.29491,10.97334 -17.45585,19.95154 -18.13543,19.95154 -1.10187,0 -1.18063,-2.32576 -0.72771,-21.48964 z"
         id="path178"
         transform="scale(0.26458333)" /><path
         style="fill:#ffffff;fill-opacity:1;fill-rule:evenodd;stroke:#e8e8e8;stroke-width:0;stroke-dasharray:none;stroke-opacity:0.929389"
         d="m 122.53065,787.52093 c 1.64213,-1.64212 59.60482,-34.96306 60.01737,-34.50211 0.27766,0.31023 2.53455,6.69823 5.01532,14.19556 l 4.51048,13.6315 -2.03694,2.67058 c -1.12032,1.46881 -2.03695,3.08221 -2.03695,3.58533 0,0.67732 -8.56102,0.91475 -32.98245,0.91475 -18.14034,0 -32.75941,-0.22302 -32.48683,-0.49561 z"
         id="path179"
         transform="scale(0.26458333)" /><path
         style="fill:#ffffff;fill-opacity:1;fill-rule:evenodd;stroke:#e8e8e8;stroke-width:0;stroke-dasharray:none;stroke-opacity:0.929389"
         d="m 124.54003,776.34076 c 1.3058,-1.63263 8.3836,-10.09263 15.72846,-18.8 l 13.35429,-15.83157 4.00114,0.26133 c 2.31641,0.15129 5.17136,-0.22763 6.78037,-0.89992 5.15836,-2.15529 7.91683,-8.48026 6.28149,-14.40297 -0.63611,-2.30379 -0.58001,-3.34278 0.24399,-4.51921 0.96306,-1.37496 1.48486,-0.28289 5.22089,10.92665 4.00079,12.00393 4.09687,12.49381 2.65692,13.54728 -2.46481,1.80326 -55.43312,32.68683 -56.06108,32.68683 -0.31935,0 0.48774,-1.33579 1.79353,-2.96842 z"
         id="path180"
         transform="scale(0.26458333)" /><path
         style="fill:#ffffff;fill-opacity:1;fill-rule:evenodd;stroke:#e8e8e8;stroke-width:0;stroke-dasharray:none;stroke-opacity:0.929389"
         d="m 136.71705,706.04132 -15.96277,-13.95336 0.0667,-4.74109 0.0667,-4.74109 7.23609,-5.33063 c 16.96894,-12.50053 17.26448,-12.6715 19.90136,-11.51254 1.3061,0.57406 3.26526,1.22887 4.35368,1.45515 1.82416,0.37924 2.57853,2.21318 9.64458,23.4469 l 7.66563,23.03549 -2.25284,2.52137 c -2.07972,2.32761 -2.63839,2.52251 -7.26985,2.53629 -2.75934,0.008 -5.57266,0.28985 -6.25179,0.62589 -0.90886,0.44971 -5.44835,-3.07216 -17.19757,-13.34238 z"
         id="path181"
         transform="scale(0.26458333)" /><path
         style="fill:#ffffff;fill-opacity:1;fill-rule:evenodd;stroke:#e8e8e8;stroke-width:0;stroke-dasharray:none;stroke-opacity:0.929389"
         d="m 113.98733,675.73354 c -1.30611,-0.71969 -2.50974,-1.38417 -2.67475,-1.47661 -0.42125,-0.23601 -3.23006,-26.14733 -3.19957,-29.51612 0.0189,-2.09238 0.58401,-3.2116 2.30857,-4.5725 l 2.28351,-1.80198 14.69164,7.3331 14.69164,7.33309 -0.0112,3.17625 -0.0112,3.17624 -12.20828,8.69072 c -6.71456,4.77989 -12.49792,8.75273 -12.85191,8.82853 -0.354,0.0758 -1.71226,-0.45103 -3.01836,-1.17072 z"
         id="path182"
         transform="scale(0.26458333)" /><path
         style="fill:#ffffff;fill-opacity:1;fill-rule:evenodd;stroke:#e8e8e8;stroke-width:0;stroke-dasharray:none;stroke-opacity:0.929389"
         d="M 87.008076,661.57298 C 60.397049,636.79543 59.764037,636.16332 60.262237,634.86503 c 0.392648,-1.02323 2.7887,-1.20632 15.786152,-1.20632 15.090949,0 15.337165,0.027 16.24159,1.78105 1.475172,2.86096 4.099752,5.40476 6.701068,6.49483 l 2.418453,1.01344 1.37853,13.75954 c 0.75819,7.56775 1.5703,14.86749 1.80469,16.22164 0.88842,5.13265 -1.60515,3.52229 -17.584644,-11.35623 z"
         id="path183"
         transform="scale(0.26458333)" /><path
         style="fill:#ffffff;fill-opacity:1;fill-rule:evenodd;stroke:#e8e8e8;stroke-width:0;stroke-dasharray:none;stroke-opacity:0.929389"
         d="m 72.825235,622.07387 c 5.22442,-2.8756 9.972482,-5.41267 10.551251,-5.63793 0.583263,-0.22701 2.946319,1.46092 5.301555,3.7869 3.498952,3.45549 4.111907,4.45309 3.471421,5.64985 -0.71013,1.32689 -1.998319,1.45235 -14.8005,1.44147 l -14.02267,-0.0119 z"
         id="path184"
         transform="scale(0.26458333)" /><path
         style="fill:#ffffff;fill-opacity:1;fill-rule:evenodd;stroke:#e8e8e8;stroke-width:0;stroke-dasharray:none;stroke-opacity:0.929389"
         d="M 72.459382,594.2867 C 61.228767,582.63586 59.747534,580.79705 60.185909,579.05043 c 0.274198,-1.09249 0.632258,-2.12007 0.795688,-2.2835 0.312244,-0.31224 19.386275,-2.42869 22.161385,-2.45902 0.950975,-0.0104 2.168205,0.92672 2.972678,2.28858 0.749263,1.2684 2.916427,3.05853 4.815921,3.97806 l 3.453625,1.67187 0.976036,9.92626 c 0.536819,5.45945 0.850877,10.02391 0.697905,10.14326 -0.908475,0.70878 -9.762652,5.22067 -10.245087,5.22067 -0.320465,0 -6.33007,-5.96246 -13.354678,-13.24991 z"
         id="path185"
         transform="scale(0.26458333)" /><path
         style="fill:#ffffff;fill-opacity:1;fill-rule:evenodd;stroke:#e8e8e8;stroke-width:0;stroke-dasharray:none;stroke-opacity:0.929389"
         d="m 45.084002,578.67997 c -1.068631,-1.06863 -1.942966,-2.86587 -1.942966,-3.99387 0,-2.63921 3.297629,-5.93684 5.93684,-5.93684 2.230814,0 5.93684,3.16618 5.93684,5.07203 0,2.2242 -1.754104,5.04226 -3.686639,5.92278 -2.855456,1.30103 -4.089194,1.09078 -6.244075,-1.0641 z"
         id="path186"
         transform="scale(0.26458333)" /><path
         style="fill:#ffffff;fill-opacity:1;fill-rule:evenodd;stroke:#e8e8e8;stroke-width:0;stroke-dasharray:none;stroke-opacity:0.929389"
         d="M 46.556992,636.02792 C 41.029146,633.8007 42.9258,624.95134 48.931,624.95134 c 5.068834,0 7.272977,7.03433 3.206439,10.23307 -2.272317,1.78741 -2.974363,1.89352 -5.580447,0.84351 z"
         id="path187"
         transform="scale(0.26458333)" /><path
         style="fill:#ffffff;fill-opacity:1;fill-rule:evenodd;stroke:#e8e8e8;stroke-width:0;stroke-dasharray:none;stroke-opacity:0.929389"
         d="m 55.916495,620.96711 c -1.02781,-0.85625 -2.363599,-1.55682 -2.96842,-1.55682 -0.903423,0 -1.099674,-2.95149 -1.099674,-16.53846 0,-14.76638 0.142671,-16.59321 1.331517,-17.04941 1.490004,-0.57177 5.531184,3.15212 18.506694,17.05365 l 7.840921,8.4005 -10.564613,5.65002 c -5.810537,3.10751 -10.702554,5.63816 -10.871146,5.62368 -0.168593,-0.0145 -1.147469,-0.7269 -2.175279,-1.58316 z"
         id="path188"
         transform="scale(0.26458333)" /><path
         style="fill:#ffffff;fill-opacity:1;fill-rule:evenodd;stroke:#e8e8e8;stroke-width:0;stroke-dasharray:none;stroke-opacity:0.929389"
         d="m 101.10752,524.68263 c -0.55337,-0.22264 -1.561015,-1.47784 -2.239208,-2.78932 -0.996168,-1.92637 -1.055964,-2.81209 -0.311228,-4.61005 2.437116,-5.88371 11.076556,-4.03357 11.076556,2.37206 0,3.53922 -4.9583,6.46282 -8.52612,5.02731 z"
         id="path189"
         transform="scale(0.26458333)" /><path
         style="fill:#ffffff;fill-opacity:1;fill-rule:evenodd;stroke:#e8e8e8;stroke-width:0;stroke-dasharray:none;stroke-opacity:0.929389"
         d="m 60.110125,569.46017 c -0.482285,-0.78035 36.312819,-39.06171 37.847733,-39.37651 0.938631,-0.1925 0.597733,4.17881 -1.251159,16.04351 l -1.717261,11.02001 -3.466092,1.83118 c -3.833189,2.02513 -5.298793,3.5489 -6.542785,6.80248 -0.457769,1.19726 -1.345816,2.17684 -1.973439,2.17684 -1.386794,0 -15.37762,1.4247 -19.435159,1.9791 -1.705526,0.23304 -3.145805,0.0348 -3.461838,-0.47661 z"
         id="path190"
         transform="scale(0.26458333)" /><path
         style="fill:#ffffff;fill-opacity:1;fill-rule:evenodd;stroke:#e8e8e8;stroke-width:0;stroke-dasharray:none;stroke-opacity:0.929389"
         d="m 197.85978,778.20935 c -0.33824,-0.82259 -2.66091,-7.76071 -5.1615,-15.41805 l -4.54651,-13.92242 7.24618,-4.24659 c 12.41907,-7.27813 13.18302,-7.50563 13.18302,-3.92587 0,1.31379 -8.64814,34.96835 -9.82053,38.21697 -0.15712,0.43537 -0.56241,0.11855 -0.90066,-0.70404 z"
         id="path191"
         transform="scale(0.26458333)" /><path
         style="fill:#ffffff;fill-opacity:1;fill-rule:evenodd;stroke:#e8e8e8;stroke-width:0;stroke-dasharray:none;stroke-opacity:0.929389"
         d="m 207.5161,770.79971 c 1.47809,-5.55095 3.77961,-14.40953 5.11449,-19.68575 l 2.42706,-9.59312 3.28162,-0.9832 c 1.83091,-0.54855 4.45433,-2.22664 5.9344,-3.79597 l 2.65279,-2.81277 9.48389,1.24012 c 5.21614,0.68207 9.6085,1.36473 9.7608,1.51704 0.1523,0.1523 0.50951,1.20366 0.7938,2.33635 0.47214,1.88115 -1.28059,3.78273 -20.24533,21.96468 -11.41921,10.94789 -21.01618,19.90524 -21.32659,19.90524 -0.3104,0 0.64498,-4.54168 2.12307,-10.09262 z"
         id="path192"
         transform="scale(0.26458333)" /><path
         style="fill:#ffffff;fill-opacity:1;fill-rule:evenodd;stroke:#e8e8e8;stroke-width:0;stroke-dasharray:none;stroke-opacity:0.929389"
         d="m 211.31552,733.03781 c -3.11783,-3.11783 -2.22023,-7.67941 1.81282,-9.21277 3.77639,-1.43579 8.11789,1.81782 8.11789,6.0837 0,1.90585 -3.70602,5.07203 -5.93684,5.07203 -1.128,0 -2.92524,-0.87433 -3.99387,-1.94296 z"
         id="path194"
         transform="scale(0.26458333)" /><path
         style="fill:#ffffff;fill-opacity:1;fill-rule:evenodd;stroke:#e8e8e8;stroke-width:0;stroke-dasharray:none;stroke-opacity:0.929389"
         d="m 236.47643,728.75725 -8.91296,-1.29647 -1.64861,-3.34486 c -1.66961,-3.38747 -4.93527,-5.94455 -8.72925,-6.83518 -1.95382,-0.45865 -2.26269,-1.21565 -5.02879,-12.32477 -1.62092,-6.50986 -2.80535,-12.26141 -2.63208,-12.78123 0.32377,-0.97129 22.63545,19.0234 32.92792,29.50847 4.14902,4.22666 5.62672,6.25371 5.25847,7.21336 -0.2817,0.7341 -0.91934,1.29477 -1.41697,1.24594 -0.49763,-0.0488 -4.91561,-0.67221 -9.81773,-1.38526 z"
         id="path195"
         transform="scale(0.26458333)" /><path
         style="fill:#ffffff;fill-opacity:1;fill-rule:evenodd;stroke:#e8e8e8;stroke-width:0;stroke-dasharray:none;stroke-opacity:0.929389"
         d="m 245.78517,716.19819 c -4.136,-4.18062 -13.10856,-12.73487 -19.93902,-19.00944 -8.06266,-7.40649 -12.26744,-11.80334 -11.98689,-12.53445 0.35407,-0.92269 3.33888,-1.12614 16.52147,-1.12614 15.22372,0 16.11553,0.0826 16.57633,1.53441 0.61431,1.9355 5.6191,6.38138 7.18362,6.38138 1.00877,0 1.14571,2.27265 0.96193,15.96408 -0.13139,9.7881 -0.52052,16.04672 -1.00586,16.17768 -0.43537,0.11748 -4.17558,-3.2069 -8.31158,-7.38752 z"
         id="path196"
         transform="scale(0.26458333)" /><path
         style="fill:#ffffff;fill-opacity:1;fill-rule:evenodd;stroke:#e8e8e8;stroke-width:0;stroke-dasharray:none;stroke-opacity:0.929389"
         d="m 195.26212,795.68342 c -3.51015,-3.73638 -1.1045,-10.04161 3.83119,-10.04161 5.02329,0 7.41587,7.10885 3.44407,10.23307 -2.72184,2.141 -5.14391,2.07726 -7.27526,-0.19146 z"
         id="path197"
         transform="scale(0.26458333)" /><path
         style="fill:#ffffff;fill-opacity:1;fill-rule:evenodd;stroke:#e8e8e8;stroke-width:0;stroke-dasharray:none;stroke-opacity:0.929389"
         d="m 254.4483,739.06202 c -2.225,-1.80169 -2.40341,-5.77187 -0.3608,-8.02892 3.26628,-3.6092 9.90398,-0.96344 9.90398,3.94767 0,4.81878 -5.64894,7.23461 -9.54318,4.08125 z"
         id="path198"
         transform="scale(0.26458333)" /><path
         style="fill:#ffffff;fill-opacity:1;fill-rule:evenodd;stroke:#e8e8e8;stroke-width:0;stroke-dasharray:none;stroke-opacity:0.929389"
         d="m 254.2035,684.26229 c -2.88442,-2.26889 -2.88442,-6.32358 0,-8.59246 1.14713,-0.90234 2.70204,-1.64061 3.45535,-1.64061 0.75331,0 2.30822,0.73827 3.45535,1.64061 2.72635,2.14455 2.84358,6.07879 0.25363,8.51193 -2.29843,2.15926 -4.49033,2.1839 -7.16433,0.0805 z"
         id="path199"
         transform="scale(0.26458333)" /><path
         style="fill:#ffffff;fill-opacity:1;fill-rule:evenodd;stroke:#e8e8e8;stroke-width:0;stroke-dasharray:none;stroke-opacity:0.929389"
         d="m 213.12203,674.48364 c -0.77072,-1.61622 -2.63175,-3.49314 -4.52882,-4.56747 -1.77125,-1.00309 -3.37346,-2.53621 -3.56047,-3.40695 -0.18702,-0.87074 -0.71798,-6.5701 -1.17992,-12.66526 -0.46195,-6.09515 -1.0387,-12.72571 -1.28168,-14.73458 -0.34101,-2.81936 -0.16876,-3.75724 0.75516,-4.11179 1.63406,-0.62705 43.43661,38.66658 43.08454,40.49868 -0.22098,1.14992 -2.11941,1.32866 -16.11546,1.51727 l -15.86497,0.21379 z"
         id="path200"
         transform="scale(0.26458333)" /><path
         style="fill:#ffffff;fill-opacity:1;fill-rule:evenodd;stroke:#e8e8e8;stroke-width:0;stroke-dasharray:none;stroke-opacity:0.929389"
         d="m 178.89677,664.70065 -13.45683,-6.89879 -0.24095,-2.88903 c -0.27011,-3.2388 0.24064,-3.70742 17.01789,-15.61368 l 8.06957,-5.72672 2.61674,1.33118 c 1.4392,0.73214 2.75919,1.45801 2.93331,1.61304 0.17411,0.15503 0.94156,7.32299 1.70544,15.9288 l 1.38886,15.64693 -2.10122,1.77712 c -1.15568,0.97741 -2.63555,1.7665 -3.2886,1.75353 -0.65305,-0.013 -7.24295,-3.12805 -14.64421,-6.92238 z"
         id="path201"
         transform="scale(0.26458333)" /><path
         style="fill:#ffffff;fill-opacity:1;fill-rule:evenodd;stroke:#e8e8e8;stroke-width:0;stroke-dasharray:none;stroke-opacity:0.929389"
         d="m 174.17679,706.43113 c -0.23538,-0.62401 -3.42252,-10.11234 -7.08252,-21.08518 -5.38683,-16.14992 -6.45545,-20.11586 -5.60942,-20.818 0.79343,-0.65849 4.5016,0.86287 15.39697,6.31693 7.89352,3.95138 14.15742,7.49891 13.91979,7.8834 -0.23763,0.38449 -0.0211,2.4795 0.48121,4.65556 l 0.91327,3.95649 -7.37496,8.58233 c -10.4447,12.15462 -10.13772,11.85156 -10.64434,10.50847 z"
         id="path202"
         transform="scale(0.26458333)" /><path
         style="fill:#ffffff;fill-opacity:1;fill-rule:evenodd;stroke:#e8e8e8;stroke-width:0;stroke-dasharray:none;stroke-opacity:0.929389"
         d="m 198.3479,683.8172 c -1.97073,-2.50538 -2.06154,-4.08528 -0.37336,-6.4955 2.71736,-3.87958 7.87555,-3.67057 9.72757,0.39416 1.23585,2.71241 1.1098,3.72205 -0.76175,6.10134 -2.26888,2.88442 -6.32357,2.88442 -8.59246,0 z"
         id="path203"
         transform="scale(0.26458333)" /><path
         style="fill:#ffffff;fill-opacity:1;fill-rule:evenodd;stroke:#e8e8e8;stroke-width:0;stroke-dasharray:none;stroke-opacity:0.929389"
         d="m 193.90079,627.75785 c -2.46546,-2.46546 -2.46546,-4.73071 0,-7.19617 2.64405,-2.64406 6.14543,-2.58377 8.2901,0.14273 2.141,2.72184 2.07726,5.14391 -0.19146,7.27526 -2.43028,2.28313 -5.68278,2.19405 -8.09864,-0.22182 z"
         id="path204"
         transform="scale(0.26458333)" /><path
         style="fill:#ffffff;fill-opacity:1;fill-rule:evenodd;stroke:#e8e8e8;stroke-width:0;stroke-dasharray:none;stroke-opacity:0.929389"
         d="m 151.04537,660.56686 c -3.71227,-1.49572 -4.46201,-6.1446 -1.47299,-9.13361 3.38943,-3.38943 8.44653,-1.81431 9.58199,2.98447 0.4091,1.72898 0.0352,2.63204 -1.88431,4.55158 -2.51282,2.51283 -3.39261,2.73863 -6.22469,1.59756 z"
         id="path205"
         transform="scale(0.26458333)" /><path
         style="fill:#ffffff;fill-opacity:1;fill-rule:evenodd;stroke:#e8e8e8;stroke-width:0;stroke-dasharray:none;stroke-opacity:0.929389"
         d="m 101.71786,636.25553 c -4.067988,-1.46865 -5.35573,-6.74004 -2.37474,-9.72103 4.84725,-4.84725 12.60187,2.56868 8.11368,7.75931 -1.54755,1.78976 -3.94516,2.60932 -5.73894,1.96172 z"
         id="path206"
         transform="scale(0.26458333)" /><path
         style="fill:#ffffff;fill-opacity:1;fill-rule:evenodd;stroke:#e8e8e8;stroke-width:0;stroke-dasharray:none;stroke-opacity:0.929389"
         d="m 92.368173,574.25947 c -2.723892,-2.53769 -2.594448,-5.85003 0.33134,-8.47863 2.463316,-2.21311 4.251628,-2.24933 6.932645,-0.14044 2.726502,2.14466 2.786792,5.64605 0.142733,8.2901 -2.365392,2.36539 -5.09094,2.48645 -7.406718,0.32897 z"
         id="path207"
         transform="scale(0.26458333)" /><path
         style="fill:#ffffff;fill-opacity:1;fill-rule:evenodd;stroke:#e8e8e8;stroke-width:0;stroke-dasharray:none;stroke-opacity:0.929389"
         d="m 102.20641,595.66886 c -0.28072,-1.75555 -0.72873,-5.77471 -0.99558,-8.93147 -0.47311,-5.59694 -0.4337,-5.76711 1.58617,-6.84811 2.37357,-1.2703 5.25349,-6.66023 5.25349,-9.83221 0,-3.21608 -1.88653,-7.11571 -4.48239,-9.26552 l -2.30812,-1.91152 1.91774,-13.46959 c 1.7118,-12.02319 2.44763,-14.60227 4.17825,-14.64484 0.27107,-0.007 6.59777,9.27927 14.05934,20.6354 l 13.56649,20.64753 -1.19619,3.52329 c -0.6579,1.93781 -1.19619,4.34069 -1.19619,5.33973 0,1.87838 -0.22045,2.01499 -23.04998,14.28293 l -6.82263,3.66628 z"
         id="path208"
         transform="scale(0.26458333)" /><path
         style="fill:#ffffff;fill-opacity:1;fill-rule:evenodd;stroke:#e8e8e8;stroke-width:0;stroke-dasharray:none;stroke-opacity:0.929389"
         d="m 104.95829,617.6263 c -0.37305,-0.98119 -0.80949,-4.0862 -0.96988,-6.9 l -0.29161,-5.11602 13.7055,-7.42958 c 7.53802,-4.08626 13.82197,-7.304 13.96433,-7.15051 0.14236,0.15348 -4.90266,6.60179 -11.21116,14.32958 -11.71906,14.35562 -13.77269,16.01322 -15.19718,12.26653 z"
         id="path209"
         transform="scale(0.26458333)" /><path
         style="fill:#ffffff;fill-opacity:1;fill-rule:evenodd;stroke:#e8e8e8;stroke-width:0;stroke-dasharray:none;stroke-opacity:0.929389"
         d="m 93.909285,616.37203 -3.207802,-3.83136 3.137899,-1.7636 c 3.544844,-1.99232 3.519204,-2.01884 4.271998,4.41868 0.263506,2.25337 0.147588,4.30193 -0.257595,4.55235 -0.405184,0.25041 -2.180209,-1.26882 -3.9445,-3.37607 z"
         id="path211"
         transform="scale(0.26458333)" /><path
         style="fill:#ffffff;fill-opacity:1;fill-rule:evenodd;stroke:#e8e8e8;stroke-width:0;stroke-dasharray:none;stroke-opacity:0.929389"
         d="m 147.62942,568.62124 c -1.08842,-0.41931 -3.14114,-0.54506 -4.56159,-0.27944 l -2.58264,0.48295 -12.95472,-19.62932 c -7.1251,-10.79612 -12.85686,-19.74084 -12.73724,-19.87716 0.11962,-0.13631 10.72605,5.75714 23.56985,13.09654 l 23.35235,13.34439 -5.10667,5.90134 c -7.01407,8.10556 -6.67993,7.84654 -8.97934,6.9607 z"
         id="path212"
         transform="scale(0.26458333)" /><path
         style="fill:#ffffff;fill-opacity:1;fill-rule:evenodd;stroke:#e8e8e8;stroke-width:0;stroke-dasharray:none;stroke-opacity:0.929389"
         d="m 141.59578,536.89076 -23.82891,-13.65727 34.47092,-0.20633 c 34.30232,-0.20531 35.68947,-0.11735 35.75002,2.26682 0.0146,0.57476 -21.25149,24.76738 -22.02292,25.05362 -0.29711,0.11024 -11.26321,-5.94534 -24.36911,-13.45684 z"
         id="path213"
         transform="scale(0.26458333)" /><path
         style="fill:#ffffff;fill-opacity:1;fill-rule:evenodd;stroke:#e8e8e8;stroke-width:0;stroke-dasharray:none;stroke-opacity:0.929389"
         d="m 140.86502,584.22102 c -1.06863,-1.06863 -1.94297,-2.86587 -1.94297,-3.99387 0,-2.6243 3.29247,-5.93684 5.90086,-5.93684 4.96989,0 7.11016,7.07517 3.09555,10.23307 -2.739,2.15449 -4.67979,2.07129 -7.05344,-0.30236 z"
         id="path214"
         transform="scale(0.26458333)" /><path
         style="fill:#ffffff;fill-opacity:1;fill-rule:evenodd;stroke:#e8e8e8;stroke-width:0;stroke-dasharray:none;stroke-opacity:0.929389"
         d="m 173.62298,599.85034 -16.89041,-14.15571 -0.39579,-5.10848 c -0.21768,-2.80966 -0.68635,-5.55759 -1.04148,-6.10651 -0.70794,-1.09425 10.77448,-14.83354 12.39692,-14.83354 0.50272,0 5.62336,2.67158 11.3792,5.93684 l 10.46517,5.93684 0.0233,3.04669 c 0.0322,4.2165 2.19003,8.3619 5.31137,10.20354 1.94473,1.14741 2.62766,2.10611 2.62766,3.68867 0,4.8593 -1.73275,23.47191 -2.23143,23.96928 -0.2965,0.29572 -1.48746,0.77177 -2.64657,1.05788 -1.8702,0.46164 -4.00916,-1.07358 -18.99789,-13.6355 z"
         id="path215"
         transform="scale(0.26458333)" /><path
         style="fill:#ffffff;fill-opacity:1;fill-rule:evenodd;stroke:#e8e8e8;stroke-width:0;stroke-dasharray:none;stroke-opacity:0.929389"
         d="m 198.22185,579.60829 c -0.69078,-0.53037 -1.70018,-1.79809 -2.24312,-2.81717 -1.81312,-3.40315 1.61727,-8.04186 5.94705,-8.04186 1.90586,0 5.07204,3.70602 5.07204,5.93684 0,4.21595 -5.60285,7.35843 -8.77597,4.92219 z"
         id="path216"
         transform="scale(0.26458333)" /><path
         style="fill:#ffffff;fill-opacity:1;fill-rule:evenodd;stroke:#e8e8e8;stroke-width:0;stroke-dasharray:none;stroke-opacity:0.929389"
         d="m 225.48301,572.11528 c -12.69101,-0.23645 -12.78551,-0.2515 -13.25189,-2.10968 -0.52288,-2.08331 -5.48268,-6.79739 -7.1517,-6.79739 -1.4758,0 -1.88043,-3.02119 -2.50294,-18.68839 -0.4277,-10.76406 -0.32534,-13.67463 0.49879,-14.18398 1.06913,-0.66075 4.92818,3.14231 27.92099,27.51603 9.77389,10.36088 10.84457,11.76772 10.06478,13.22477 -0.47994,0.89678 -1.30535,1.55092 -1.83425,1.45364 -0.52889,-0.0973 -6.71359,-0.28403 -13.74378,-0.415 z"
         id="path217"
         transform="scale(0.26458333)" /><path
         style="fill:#ffffff;fill-opacity:1;fill-rule:evenodd;stroke:#e8e8e8;stroke-width:0;stroke-dasharray:none;stroke-opacity:0.929389"
         d="m 203.15451,613.16448 c -0.88906,-0.56273 -0.92295,-2.7323 -0.1979,-12.66855 0.48119,-6.59424 0.87489,-12.51657 0.87489,-13.16073 0,-0.64417 0.52192,-1.17121 1.15983,-1.17121 1.55149,0 6.55609,-4.45587 7.16722,-6.38138 0.45735,-1.44099 1.32862,-1.53441 14.31113,-1.53441 17.16922,0 17.48677,0.26238 9.36732,7.74012 -11.00156,10.13204 -30.46795,27.48992 -31.03135,27.67016 -0.3181,0.10176 -1.06111,-0.12053 -1.65114,-0.494 z"
         id="path218"
         transform="scale(0.26458333)" /><path
         style="fill:#ffffff;fill-opacity:1;fill-rule:evenodd;stroke:#e8e8e8;stroke-width:0;stroke-dasharray:none;stroke-opacity:0.929389"
         d="m 248.66245,579.77391 c -3.88255,-3.05401 -1.63636,-10.23307 3.20172,-10.23307 2.88132,0 5.79468,2.98483 5.79468,5.93684 0,2.84462 -2.88607,5.93684 -5.54105,5.93684 -0.75331,0 -2.30822,-0.73828 -3.45535,-1.64061 z"
         id="path219"
         transform="scale(0.26458333)" /><path
         style="fill:#ffffff;fill-opacity:1;fill-rule:evenodd;stroke:#e8e8e8;stroke-width:0;stroke-dasharray:none;stroke-opacity:0.929389"
         d="m 194.8351,523.57182 c -2.88442,-2.26888 -2.88442,-6.32358 0,-8.59246 2.73899,-2.15449 4.67978,-2.07129 7.05344,0.30236 2.49317,2.49317 2.53956,5.92795 0.11089,8.20957 -2.29843,2.15926 -4.49033,2.1839 -7.16433,0.0805 z"
         id="path220"
         transform="scale(0.26458333)" /><path
         style="fill:none;fill-opacity:1;fill-rule:evenodd;stroke:#e8e8e8;stroke-width:0;stroke-dasharray:none;stroke-opacity:0.929389"
         d="m 182.69077,560.48407 c -5.31456,-3.10825 -9.90057,-5.8891 -10.19112,-6.17966 -0.60096,-0.60095 0.61891,-2.12236 12.00721,-14.9752 11.05998,-12.48229 11.0637,-12.48091 11.82464,4.35853 0.95576,21.15085 1.09293,19.35413 -1.60315,20.99894 l -2.37474,1.44877 z"
         id="path221"
         transform="scale(0.26458333)" /><path
         style="fill:none;fill-opacity:1;fill-rule:evenodd;stroke:#e8e8e8;stroke-width:0;stroke-dasharray:none;stroke-opacity:0.929389"
         d="m 185.53811,739.21703 c -0.49537,-1.24152 -2.46298,-7.19848 -4.37247,-13.23769 l -3.47179,-10.98038 7.4559,-8.80909 c 10.40426,-12.29254 12.56948,-14.26934 14.96963,-13.66694 1.64412,0.41265 2.20168,1.43201 3.62679,6.63063 0.92619,3.37866 2.2794,9.00561 3.00713,12.50433 l 1.32313,6.36131 -2.12246,3.12349 c -1.55964,2.29521 -2.12247,4.11206 -2.12247,6.85145 v 3.72797 l -7.51486,4.42273 c -9.8774,5.81316 -9.70454,5.76389 -10.77853,3.07219 z"
         id="path222"
         transform="scale(0.26458333)" /><path
         style="fill:none;fill-opacity:1;fill-rule:evenodd;stroke:#e8e8e8;stroke-width:0;stroke-dasharray:none;stroke-opacity:0.929389"
         d="m 185.53811,739.21703 c -0.49537,-1.24152 -2.46298,-7.19848 -4.37247,-13.23769 l -3.47179,-10.98038 7.4559,-8.80909 c 10.40426,-12.29254 12.56948,-14.26934 14.96963,-13.66694 1.64412,0.41265 2.20168,1.43201 3.62679,6.63063 0.92619,3.37866 2.2794,9.00561 3.00713,12.50433 l 1.32313,6.36131 -2.12246,3.12349 c -1.55964,2.29521 -2.12247,4.11206 -2.12247,6.85145 v 3.72797 l -7.51486,4.42273 c -9.8774,5.81316 -9.70454,5.76389 -10.77853,3.07219 z"
         id="path223"
         transform="scale(0.26458333)" /><path
         style="fill:none;fill-opacity:1;fill-rule:evenodd;stroke:#e8e8e8;stroke-width:0;stroke-dasharray:none;stroke-opacity:0.929389"
         d="m 185.53811,739.21703 c -0.49537,-1.24152 -2.46298,-7.19848 -4.37247,-13.23769 l -3.47179,-10.98038 7.4559,-8.80909 c 10.40426,-12.29254 12.56948,-14.26934 14.96963,-13.66694 1.64412,0.41265 2.20168,1.43201 3.62679,6.63063 0.92619,3.37866 2.2794,9.00561 3.00713,12.50433 l 1.32313,6.36131 -2.12246,3.12349 c -1.55964,2.29521 -2.12247,4.11206 -2.12247,6.85145 v 3.72797 l -7.51486,4.42273 c -9.8774,5.81316 -9.70454,5.76389 -10.77853,3.07219 z"
         id="path224"
         transform="scale(0.26458333)" /><path
         style="fill:#ffffff;fill-opacity:1;fill-rule:evenodd;stroke:#e8e8e8;stroke-width:0;stroke-dasharray:none;stroke-opacity:0.929389"
         d="m 182.69077,560.48407 c -5.31456,-3.10825 -9.90057,-5.8891 -10.19112,-6.17966 -0.60096,-0.60095 0.61891,-2.12236 12.00721,-14.9752 11.05998,-12.48229 11.0637,-12.48091 11.82464,4.35853 0.95576,21.15085 1.09293,19.35413 -1.60315,20.99894 l -2.37474,1.44877 z"
         id="path226"
         transform="scale(0.26458333)" /></g></g></svg>
