<?xml version="1.0" encoding="UTF-8" standalone="no"?>
<!-- Created with Inkscape (http://www.inkscape.org/) -->

<svg
   width="226"
   height="224"
   viewBox="0 0 59.795856 59.266692"
   version="1.1"
   id="svg1"
   xml:space="preserve"
   sodipodi:docname="logo.svg"
   inkscape:version="1.4.2 (ebf0e940d0, 2025-05-08)"
   xmlns:inkscape="http://www.inkscape.org/namespaces/inkscape"
   xmlns:sodipodi="http://sodipodi.sourceforge.net/DTD/sodipodi-0.dtd"
   xmlns:xlink="http://www.w3.org/1999/xlink"
   xmlns="http://www.w3.org/2000/svg"
   xmlns:svg="http://www.w3.org/2000/svg"><sodipodi:namedview
     id="namedview1"
     pagecolor="#ffffff"
     bordercolor="#666666"
     borderopacity="1.0"
     inkscape:showpageshadow="2"
     inkscape:pageopacity="0.0"
     inkscape:pagecheckerboard="0"
     inkscape:deskcolor="#d1d1d1"
     inkscape:document-units="mm"
     inkscape:zoom="1"
     inkscape:cx="213.5"
     inkscape:cy="330"
     inkscape:window-width="1906"
     inkscape:window-height="1028"
     inkscape:window-x="0"
     inkscape:window-y="0"
     inkscape:window-maximized="1"
     inkscape:current-layer="layer1" /><defs
     id="defs1"><linearGradient
       id="linearGradient9"
       inkscape:collect="always"><stop
         style="stop-color:#ed378e;stop-opacity:1;"
         offset="0"
         id="stop9" /><stop
         style="stop-color:#ed378e;stop-opacity:0;"
         offset="1"
         id="stop10" /></linearGradient><linearGradient
       inkscape:collect="always"
       xlink:href="#linearGradient9"
       id="linearGradient10"
       x1="46.342659"
       y1="86.271622"
       x2="195.93987"
       y2="166.96953"
       gradientUnits="userSpaceOnUse" /></defs><g
     inkscape:label="Layer 1"
     inkscape:groupmode="layer"
     id="layer1"><g
       id="g8"
       transform="translate(-35.454166,-70.908333)"><ellipse
         style="fill:url(#linearGradient10);fill-opacity:1;fill-rule:evenodd;stroke:#e8e8e8;stroke-width:0;stroke-opacity:0.929389"
         id="path6"
         cx="65.578758"
         cy="100.02995"
         rx="26.909014"
         ry="26.612219" /><path
         style="fill:#ffffff;stroke:none;stroke-width:0.105235px;stroke-linecap:butt;stroke-linejoin:miter;stroke-opacity:1"
         d="m 43.935467,87.943713 c 3.463656,2.791794 26.312078,11.763404 36.09637,6.855512 5.054864,-4.301021 6.510297,-7.987503 3.917436,-10.982812 -4.876291,8.939962 -23.313877,5.756951 -40.013806,4.1273 z"
         id="path1"
         sodipodi:nodetypes="cccc" /><path
         style="fill:#ffffff;stroke:none;stroke-width:0.105235px;stroke-linecap:butt;stroke-linejoin:miter;stroke-opacity:1"
         d="m 75.554605,104.27587 c 4.225733,-5.261838 4.89526,-6.752638 6.282067,-9.052114 -10.081041,6.522154 -29.119833,0.449442 -35.812729,-4.352926 3.210983,9.28378 21.898412,14.24293 29.530662,13.40504 z"
         id="path2"
         sodipodi:nodetypes="cccc" /><path
         style="fill:#ffffff;stroke:none;stroke-width:0.105235px;stroke-linecap:butt;stroke-linejoin:miter;stroke-opacity:1"
         d="m 65.236523,120.82219 c 2.504877,-4.84838 5.052467,-9.67006 8.289574,-14.0608 -11.473158,0.4463 -20.74099,-6.42321 -23.399683,-8.849204 5.138818,7.398394 10.728646,13.744444 15.110109,22.910004 z"
         id="path3"
         sodipodi:nodetypes="cccc" /><path
         style="fill:#d4d5df;fill-opacity:1;stroke:none;stroke-width:0.105235px;stroke-linecap:butt;stroke-linejoin:miter;stroke-opacity:1"
         d="m 84.996951,88.397574 c -5.530891,5.375268 -14.39068,5.964288 -23.00815,6.437344 2.833759,0.612113 11.132222,2.818471 17.91873,0.141512 2.706467,-2.426454 4.528214,-4.618759 5.08942,-6.578856 z"
         id="path4"
         sodipodi:nodetypes="cccc" /><path
         style="fill:#d4d5df;fill-opacity:1;stroke:none;stroke-width:0.105235px;stroke-linecap:butt;stroke-linejoin:miter;stroke-opacity:1"
         d="m 80.904628,96.809568 c -5.530891,5.375272 -11.34767,4.705112 -19.96514,5.178172 2.518964,0.95314 7.494603,2.52116 14.735811,2.32758 0.607842,-0.95742 4.00356,-5.178394 5.229329,-7.505752 z"
         id="path5"
         sodipodi:nodetypes="cccc" /></g></g></svg>
